# xmcd CD database file
#
# Track frame offsets:
#	150
#	16231
#	39274
#	58347
#	76574
#	106635
#	121812
#	139744
#	163672
#	183803
#	197384
#	212982
#
# Disc length: 3222 seconds
#
# Revision: 0
# Processed by: cddbd v1.5.2PL0 Copyright (c) Steve Scherf et al.
# Submitted via: CDex 1.70beta2
#
DISCID=8e0c940c
DTITLE=Tobi Hofmann, Ulrich Wangenheim - heller raum
DYEAR=2009
DGENRE=Jazz
TTITLE0=der morgen
TTITLE1=heller raum
TTITLE2=gedanken
TTITLE3=lichtspiel
TTITLE4=the cullins
TTITLE5=augenblick
TTITLE6=fünf studen
TTITLE7=auf der empore
TTITLE8=der alte stein
TTITLE9=ohne worte
TTITLE10=jesus meine freude
TTITLE11=ausklang
EXTD=YEAR: 2009
EXTT0=
EXTT1=
EXTT2=
EXTT3=
EXTT4=
EXTT5=
EXTT6=
EXTT7=
EXTT8=
EXTT9=
EXTT10=
EXTT11=
PLAYORDER=
